<?xml version="1.0" standalone="no"?>
<!DOCTYPE svg PUBLIC "-//W3C//DTD SVG 20010904//EN"
 "http://www.w3.org/TR/2001/REC-SVG-20010904/DTD/svg10.dtd">
<svg version="1.0" xmlns="http://www.w3.org/2000/svg"
 width="256.000000pt" height="256.000000pt" viewBox="0 0 256.000000 256.000000"
 preserveAspectRatio="xMidYMid meet">

<g transform="translate(0.000000,256.000000) scale(0.100000,-0.100000)"
fill="#000000" stroke="none">
<path d="M1375 2404 c-187 -29 -315 -135 -332 -274 -16 -135 86 -288 277 -414
72 -48 200 -119 206 -114 2 2 -6 33 -17 68 -25 77 -29 197 -10 255 48 142 188
221 348 197 118 -19 226 -76 332 -176 62 -59 59 -49 -20 54 -190 251 -426 392
-674 404 -44 2 -93 2 -110 0z"/>
<path d="M914 2274 c-152 -113 -246 -238 -284 -377 -77 -276 81 -569 416 -770
34 -20 111 -59 172 -86 342 -153 489 -296 500 -490 3 -60 0 -88 -17 -136 -12
-33 -25 -68 -28 -78 -10 -33 115 52 197 133 127 126 176 254 168 436 -7 159
-60 276 -178 395 -85 85 -133 117 -309 204 -396 196 -545 313 -597 468 -24 70
-22 192 4 275 11 34 17 62 12 62 -4 0 -29 -16 -56 -36z"/>
<path d="M1094 967 c108 -242 -7 -471 -259 -518 -135 -25 -278 22 -421 138
l-59 48 65 -79 c206 -250 450 -379 715 -380 168 0 292 40 389 125 175 154 139
364 -93 541 -65 49 -279 161 -333 174 l-28 6 24 -55z"/>
</g>
</svg>
